<svg width="482" height="77" viewBox="0 0 482 77" fill="none" xmlns="http://www.w3.org/2000/svg">
<g clip-path="url(#clip0_133_2)">
<g opacity="0.8">
<path d="M480.798 64.5333C480.798 71.1607 475.425 76.5333 468.798 76.5333L140.77 76.5333C134.142 76.5333 128.77 71.1607 128.77 64.5333V12.4667C128.77 5.83924 134.142 0.46666 140.77 0.46666L468.798 0.46666C475.425 0.46666 480.798 5.83924 480.798 12.4667V64.5333Z" fill="#F4795B" fill-opacity="0.8" stroke="#E5ECF6" stroke-width="0.5"/>
<path d="M284.824 13.2165C284.824 14.6565 284.56 15.8625 284.032 16.8345C283.516 17.8065 282.772 18.5385 281.8 19.0305C280.84 19.5225 279.688 19.7685 278.344 19.7685H274.69V6.91649H278.668C279.952 6.91649 281.05 7.15649 281.962 7.63649C282.886 8.11649 283.594 8.82449 284.086 9.76049C284.578 10.6845 284.824 11.8365 284.824 13.2165ZM281.8 13.2885C281.8 12.3405 281.686 11.5605 281.458 10.9485C281.23 10.3365 280.888 9.88649 280.432 9.59849C279.988 9.29849 279.43 9.14849 278.758 9.14849H277.606V17.5185H278.506C279.634 17.5185 280.462 17.1645 280.99 16.4565C281.53 15.7485 281.8 14.6925 281.8 13.2885ZM289.852 9.94049V19.7685H286.972V9.94049H289.852ZM288.43 6.08849C288.85 6.08849 289.21 6.18449 289.51 6.37649C289.81 6.55649 289.96 6.89849 289.96 7.40249C289.96 7.89449 289.81 8.23649 289.51 8.42849C289.21 8.62049 288.85 8.71649 288.43 8.71649C287.998 8.71649 287.632 8.62049 287.332 8.42849C287.032 8.23649 286.882 7.89449 286.882 7.40249C286.882 6.89849 287.032 6.55649 287.332 6.37649C287.632 6.18449 287.998 6.08849 288.43 6.08849ZM302.45 6.91649L298.4 19.7685H295.088L291.074 6.91649H294.188L296.168 14.5665C296.204 14.6985 296.264 14.9445 296.348 15.3045C296.432 15.6525 296.516 16.0245 296.6 16.4205C296.684 16.8045 296.738 17.1285 296.762 17.3925C296.798 17.1285 296.852 16.8045 296.924 16.4205C297.008 16.0365 297.086 15.6705 297.158 15.3225C297.242 14.9625 297.302 14.7105 297.338 14.5665L299.318 6.91649H302.45ZM310.582 19.7685L309.844 16.7085H305.686L304.93 19.7685H301.762L305.866 6.86249H309.61L313.732 19.7685H310.582ZM308.368 11.4345C308.296 11.1825 308.224 10.9185 308.152 10.6425C308.08 10.3665 308.008 10.0785 307.936 9.77849C307.876 9.47849 307.816 9.17249 307.756 8.86049C307.708 9.17249 307.648 9.48449 307.576 9.79649C307.504 10.0965 307.432 10.3845 307.36 10.6605C307.3 10.9365 307.234 11.1945 307.162 11.4345L306.334 14.4225H309.214L308.368 11.4345Z" fill="#444444"/>
<path d="M238.501 44.7685L243.073 33.8785H237.133V31.9165H245.629V33.4465L241.039 44.7685H238.501ZM255.313 44.7685H246.943V43.0945L249.985 39.7825C250.597 39.1225 251.089 38.5585 251.461 38.0905C251.833 37.6105 252.103 37.1665 252.271 36.7585C252.451 36.3505 252.541 35.9065 252.541 35.4265C252.541 34.8385 252.391 34.4005 252.091 34.1125C251.803 33.8125 251.419 33.6625 250.939 33.6625C250.459 33.6625 250.003 33.7765 249.571 34.0045C249.151 34.2205 248.707 34.5325 248.239 34.9405L246.925 33.4465C247.273 33.1345 247.639 32.8525 248.023 32.6005C248.407 32.3365 248.851 32.1265 249.355 31.9705C249.871 31.8145 250.465 31.7365 251.137 31.7365C251.917 31.7365 252.589 31.8865 253.153 32.1865C253.729 32.4745 254.173 32.8765 254.485 33.3925C254.797 33.9085 254.953 34.5085 254.953 35.1925C254.953 35.7205 254.875 36.2065 254.719 36.6505C254.575 37.0945 254.359 37.5325 254.071 37.9645C253.783 38.3965 253.441 38.8405 253.045 39.2965C252.649 39.7525 252.205 40.2505 251.713 40.7905L249.967 42.6985V42.8065H255.313V44.7685ZM259.345 31.7365C260.257 31.7365 260.959 32.0905 261.451 32.7985C261.943 33.4945 262.189 34.4785 262.189 35.7505C262.189 37.0225 261.955 38.0185 261.487 38.7385C261.031 39.4465 260.317 39.8005 259.345 39.8005C258.757 39.8005 258.253 39.6385 257.833 39.3145C257.425 38.9905 257.107 38.5285 256.879 37.9285C256.663 37.3165 256.555 36.5905 256.555 35.7505C256.555 34.4785 256.783 33.4945 257.239 32.7985C257.695 32.0905 258.397 31.7365 259.345 31.7365ZM259.363 33.3025C259.051 33.3025 258.823 33.5065 258.679 33.9145C258.547 34.3225 258.481 34.9345 258.481 35.7505C258.481 36.5785 258.547 37.2025 258.679 37.6225C258.823 38.0305 259.051 38.2345 259.363 38.2345C259.687 38.2345 259.921 38.0305 260.065 37.6225C260.209 37.2025 260.281 36.5845 260.281 35.7685C260.281 34.9405 260.209 34.3225 260.065 33.9145C259.921 33.5065 259.687 33.3025 259.363 33.3025ZM267.805 31.9165L261.109 44.7685H259.219L265.915 31.9165H267.805ZM267.661 36.8665C268.273 36.8665 268.789 37.0285 269.209 37.3525C269.629 37.6645 269.947 38.1205 270.163 38.7205C270.391 39.3085 270.505 40.0285 270.505 40.8805C270.505 42.1525 270.271 43.1485 269.803 43.8685C269.335 44.5765 268.621 44.9305 267.661 44.9305C267.073 44.9305 266.569 44.7685 266.149 44.4445C265.741 44.1205 265.423 43.6585 265.195 43.0585C264.979 42.4465 264.871 41.7205 264.871 40.8805C264.871 39.6085 265.099 38.6245 265.555 37.9285C266.023 37.2205 266.725 36.8665 267.661 36.8665ZM267.679 38.4505C267.367 38.4505 267.139 38.6545 266.995 39.0625C266.863 39.4585 266.797 40.0705 266.797 40.8985C266.797 41.7265 266.863 42.3505 266.995 42.7705C267.139 43.1785 267.367 43.3825 267.679 43.3825C267.991 43.3825 268.219 43.1785 268.363 42.7705C268.519 42.3625 268.597 41.7385 268.597 40.8985C268.597 40.0705 268.519 39.4585 268.363 39.0625C268.219 38.6545 267.991 38.4505 267.679 38.4505ZM291.836 31.9165L288.74 44.7685H286.004L284.258 37.3885C284.222 37.2085 284.174 36.9865 284.114 36.7225C284.066 36.4585 284.012 36.1885 283.952 35.9125C283.892 35.6245 283.844 35.3605 283.808 35.1205C283.772 34.8685 283.742 34.6825 283.718 34.5625C283.706 34.6825 283.676 34.8685 283.628 35.1205C283.592 35.3605 283.544 35.6245 283.484 35.9125C283.436 36.1885 283.382 36.4645 283.322 36.7405C283.274 37.0045 283.226 37.2325 283.178 37.4245L281.45 44.7685H278.714L275.618 31.9165H278.03L279.614 39.2425C279.65 39.4825 279.698 39.7465 279.758 40.0345C279.818 40.3105 279.872 40.5985 279.92 40.8985C279.98 41.1865 280.034 41.4745 280.082 41.7625C280.13 42.0385 280.166 42.2845 280.19 42.5005C280.226 42.2725 280.268 42.0205 280.316 41.7445C280.364 41.4565 280.412 41.1685 280.46 40.8805C280.52 40.5805 280.58 40.2925 280.64 40.0165C280.7 39.7405 280.754 39.5005 280.802 39.2965L282.566 31.9165H284.87L286.652 39.3505C286.7 39.5545 286.754 39.7945 286.814 40.0705C286.874 40.3345 286.928 40.6165 286.976 40.9165C287.036 41.2045 287.09 41.4865 287.138 41.7625C287.186 42.0385 287.228 42.2845 287.264 42.5005C287.3 42.2005 287.348 41.8585 287.408 41.4745C287.48 41.0905 287.558 40.7005 287.642 40.3045C287.726 39.9085 287.798 39.5545 287.858 39.2425L289.442 31.9165H291.836ZM295.687 35.0125V44.7685H293.311V35.0125H295.687ZM294.517 31.2505C294.865 31.2505 295.165 31.3405 295.417 31.5205C295.669 31.6885 295.795 31.9945 295.795 32.4385C295.795 32.8705 295.669 33.1825 295.417 33.3745C295.165 33.5545 294.865 33.6445 294.517 33.6445C294.145 33.6445 293.833 33.5545 293.581 33.3745C293.329 33.1825 293.203 32.8705 293.203 32.4385C293.203 31.9945 293.329 31.6885 293.581 31.5205C293.833 31.3405 294.145 31.2505 294.517 31.2505ZM303.415 34.8325C304.435 34.8325 305.239 35.1145 305.827 35.6785C306.415 36.2425 306.709 37.1545 306.709 38.4145V44.7685H304.315V38.8645C304.315 38.1325 304.189 37.5865 303.937 37.2265C303.685 36.8545 303.289 36.6685 302.749 36.6685C301.945 36.6685 301.399 36.9565 301.111 37.5325C300.823 38.0965 300.679 38.9185 300.679 39.9985V44.7685H298.285V35.0125H300.121L300.463 36.2905H300.553C300.769 35.9545 301.021 35.6785 301.309 35.4625C301.597 35.2465 301.921 35.0905 302.281 34.9945C302.641 34.8865 303.019 34.8325 303.415 34.8325ZM317.447 31.9165C318.515 31.9165 319.397 32.0545 320.093 32.3305C320.789 32.6065 321.305 33.0265 321.641 33.5905C321.977 34.1425 322.145 34.8445 322.145 35.6965C322.145 36.3205 322.043 36.8545 321.839 37.2985C321.635 37.7425 321.359 38.1145 321.011 38.4145C320.675 38.7025 320.309 38.9365 319.913 39.1165L323.369 44.7685H320.633L317.843 39.6925H316.277V44.7685H313.865V31.9165H317.447ZM317.339 33.8425H316.277V37.8025H317.375C317.891 37.8025 318.317 37.7245 318.653 37.5685C319.001 37.4125 319.259 37.1845 319.427 36.8845C319.607 36.5845 319.697 36.2125 319.697 35.7685C319.697 35.3005 319.613 34.9285 319.445 34.6525C319.277 34.3645 319.019 34.1605 318.671 34.0405C318.323 33.9085 317.879 33.8425 317.339 33.8425ZM328.594 34.8325C329.77 34.8325 330.67 35.1085 331.294 35.6605C331.918 36.2005 332.23 37.0525 332.23 38.2165V44.7685H330.556L330.088 43.4185H330.016C329.752 43.7665 329.482 44.0605 329.206 44.3005C328.93 44.5285 328.612 44.6905 328.252 44.7865C327.892 44.8945 327.46 44.9485 326.956 44.9485C326.416 44.9485 325.93 44.8405 325.498 44.6245C325.066 44.4085 324.724 44.0785 324.472 43.6345C324.22 43.1785 324.094 42.6085 324.094 41.9245C324.094 40.9165 324.442 40.1605 325.138 39.6565C325.834 39.1405 326.878 38.8585 328.27 38.8105L329.836 38.7565V38.2705C329.836 37.6465 329.704 37.2025 329.44 36.9385C329.176 36.6745 328.816 36.5425 328.36 36.5425C327.928 36.5425 327.49 36.6145 327.046 36.7585C326.614 36.9025 326.188 37.0705 325.768 37.2625L325.03 35.6785C325.522 35.4265 326.068 35.2225 326.668 35.0665C327.268 34.9105 327.91 34.8325 328.594 34.8325ZM328.828 40.1965C327.976 40.2325 327.382 40.4065 327.046 40.7185C326.71 41.0185 326.542 41.4265 326.542 41.9425C326.542 42.3985 326.656 42.7285 326.884 42.9325C327.124 43.1365 327.436 43.2385 327.82 43.2385C328.384 43.2385 328.864 43.0525 329.26 42.6805C329.656 42.2965 329.854 41.7325 329.854 40.9885V40.1605L328.828 40.1965ZM338.576 43.1305C338.84 43.1305 339.092 43.1065 339.332 43.0585C339.584 42.9985 339.818 42.9325 340.034 42.8605V44.5525C339.782 44.6605 339.476 44.7505 339.116 44.8225C338.756 44.9065 338.354 44.9485 337.91 44.9485C337.358 44.9485 336.866 44.8585 336.434 44.6785C336.002 44.4865 335.66 44.1625 335.408 43.7065C335.168 43.2505 335.048 42.6145 335.048 41.7985V36.7225H333.824V35.7325L335.192 34.9405L335.912 32.8705H337.424V35.0125H339.944V36.7225H337.424V41.7805C337.424 42.2365 337.526 42.5785 337.73 42.8065C337.946 43.0225 338.228 43.1305 338.576 43.1305ZM345.643 34.8325C346.483 34.8325 347.203 35.0125 347.803 35.3725C348.415 35.7205 348.889 36.2245 349.225 36.8845C349.561 37.5325 349.729 38.3245 349.729 39.2605V40.4125H343.753C343.777 41.3005 343.993 41.9905 344.401 42.4825C344.821 42.9625 345.409 43.2025 346.165 43.2025C346.765 43.2025 347.299 43.1425 347.767 43.0225C348.235 42.8905 348.721 42.7045 349.225 42.4645V44.2825C348.769 44.5105 348.295 44.6785 347.803 44.7865C347.311 44.8945 346.705 44.9485 345.985 44.9485C345.073 44.9485 344.263 44.7685 343.555 44.4085C342.859 44.0365 342.313 43.4785 341.917 42.7345C341.521 41.9905 341.323 41.0665 341.323 39.9625C341.323 38.8465 341.503 37.9105 341.863 37.1545C342.223 36.3865 342.727 35.8105 343.375 35.4265C344.035 35.0305 344.791 34.8325 345.643 34.8325ZM345.679 36.5065C345.139 36.5065 344.701 36.7045 344.365 37.1005C344.041 37.4845 343.849 38.0605 343.789 38.8285H347.461C347.461 38.3725 347.395 37.9705 347.263 37.6225C347.131 37.2745 346.933 37.0045 346.669 36.8125C346.417 36.6085 346.087 36.5065 345.679 36.5065Z" fill="#444444"/>
<path d="M250.309 64.8365C250.309 63.8525 250.393 62.8925 250.561 61.9565C250.741 61.0205 251.017 60.1265 251.389 59.2745C251.761 58.4225 252.229 57.6365 252.793 56.9165H254.251C253.735 57.6605 253.297 58.4645 252.937 59.3285C252.589 60.1925 252.325 61.0865 252.145 62.0105C251.965 62.9345 251.875 63.8705 251.875 64.8185C251.875 65.7425 251.965 66.6605 252.145 67.5725C252.325 68.4845 252.589 69.3605 252.937 70.2005C253.285 71.0525 253.717 71.8565 254.233 72.6125H252.793C252.229 71.9045 251.761 71.1305 251.389 70.2905C251.017 69.4625 250.741 68.5865 250.561 67.6625C250.393 66.7385 250.309 65.7965 250.309 64.8365ZM263.128 59.9225C263.128 60.4985 263.02 60.9965 262.804 61.4165C262.6 61.8365 262.312 62.1785 261.94 62.4425C261.568 62.7065 261.124 62.8925 260.608 63.0005V63.0725C261.58 63.1925 262.306 63.5165 262.786 64.0445C263.266 64.5725 263.506 65.2625 263.506 66.1145C263.506 66.8585 263.338 67.5245 263.002 68.1125C262.678 68.6885 262.168 69.1385 261.472 69.4625C260.788 69.7865 259.912 69.9485 258.844 69.9485C258.208 69.9485 257.62 69.8945 257.08 69.7865C256.54 69.6905 256.018 69.5105 255.514 69.2465V67.7705C256.018 68.0345 256.564 68.2445 257.152 68.4005C257.74 68.5445 258.304 68.6165 258.844 68.6165C259.912 68.6165 260.68 68.3945 261.148 67.9505C261.616 67.4945 261.85 66.8705 261.85 66.0785C261.85 65.5385 261.718 65.1065 261.454 64.7825C261.202 64.4465 260.824 64.2005 260.32 64.0445C259.828 63.8885 259.222 63.8105 258.502 63.8105H257.368V62.4605H258.52C259.192 62.4605 259.75 62.3585 260.194 62.1545C260.638 61.9505 260.968 61.6685 261.184 61.3085C261.412 60.9365 261.526 60.5105 261.526 60.0305C261.526 59.4065 261.334 58.9265 260.95 58.5905C260.566 58.2425 260.038 58.0685 259.366 58.0685C258.934 58.0685 258.544 58.1165 258.196 58.2125C257.848 58.2965 257.524 58.4225 257.224 58.5905C256.936 58.7465 256.648 58.9325 256.36 59.1485L255.586 58.0685C255.874 57.8285 256.204 57.6065 256.576 57.4025C256.96 57.1985 257.386 57.0365 257.854 56.9165C258.322 56.7965 258.826 56.7365 259.366 56.7365C260.626 56.7365 261.568 57.0365 262.192 57.6365C262.816 58.2365 263.128 58.9985 263.128 59.9225ZM266.694 69.7685L271.626 58.3565H265.146V56.9165H273.3V58.1405L268.422 69.7685H266.694ZM283.436 66.8525H281.69V69.7685H280.178V66.8525H274.436V65.5025L280.088 56.8445H281.69V65.4305H283.436V66.8525ZM280.178 61.3805C280.178 61.0685 280.178 60.7865 280.178 60.5345C280.19 60.2705 280.202 60.0245 280.214 59.7965C280.226 59.5685 280.232 59.3525 280.232 59.1485C280.244 58.9325 280.256 58.7285 280.268 58.5365H280.196C280.1 58.7645 279.986 59.0105 279.854 59.2745C279.722 59.5385 279.596 59.7605 279.476 59.9405L275.948 65.4305H280.178V61.3805ZM298.38 56.9165L294.078 69.7685H292.458L288.156 56.9165H289.83L292.512 65.1605C292.632 65.5085 292.734 65.8445 292.818 66.1685C292.914 66.4925 292.998 66.8045 293.07 67.1045C293.154 67.3925 293.22 67.6805 293.268 67.9685C293.316 67.6805 293.376 67.3865 293.448 67.0865C293.52 66.7865 293.604 66.4745 293.7 66.1505C293.808 65.8265 293.916 65.4845 294.024 65.1245L296.688 56.9165H298.38ZM307.413 64.9265C307.413 65.7305 307.311 66.4445 307.107 67.0685C306.915 67.6805 306.633 68.2025 306.261 68.6345C305.889 69.0665 305.439 69.3965 304.911 69.6245C304.383 69.8405 303.795 69.9485 303.147 69.9485C302.547 69.9485 301.989 69.8405 301.473 69.6245C300.969 69.3965 300.525 69.0665 300.141 68.6345C299.769 68.2025 299.481 67.6805 299.277 67.0685C299.073 66.4445 298.971 65.7305 298.971 64.9265C298.971 63.8585 299.139 62.9585 299.475 62.2265C299.823 61.4825 300.315 60.9185 300.951 60.5345C301.587 60.1385 302.337 59.9405 303.201 59.9405C304.029 59.9405 304.755 60.1385 305.379 60.5345C306.015 60.9185 306.513 61.4825 306.873 62.2265C307.233 62.9585 307.413 63.8585 307.413 64.9265ZM300.591 64.9265C300.591 65.6825 300.681 66.3425 300.861 66.9065C301.041 67.4585 301.323 67.8845 301.707 68.1845C302.091 68.4845 302.583 68.6345 303.183 68.6345C303.783 68.6345 304.275 68.4845 304.659 68.1845C305.043 67.8845 305.325 67.4585 305.505 66.9065C305.697 66.3425 305.793 65.6825 305.793 64.9265C305.793 64.1585 305.697 63.5045 305.505 62.9645C305.325 62.4245 305.043 62.0105 304.659 61.7225C304.275 61.4225 303.777 61.2725 303.165 61.2725C302.265 61.2725 301.611 61.5965 301.203 62.2445C300.795 62.8925 300.591 63.7865 300.591 64.9265ZM312.854 68.6525C313.082 68.6525 313.316 68.6345 313.556 68.5985C313.796 68.5505 313.994 68.5025 314.15 68.4545V69.6605C313.982 69.7445 313.742 69.8105 313.43 69.8585C313.13 69.9185 312.842 69.9485 312.566 69.9485C312.086 69.9485 311.642 69.8645 311.234 69.6965C310.826 69.5165 310.496 69.2105 310.244 68.7785C310.004 68.3465 309.884 67.7405 309.884 66.9605V61.3445H308.606V60.5885L309.92 59.9585L310.514 57.9065H311.45V60.1205H314.078V61.3445H311.45V66.9245C311.45 67.5125 311.582 67.9505 311.846 68.2385C312.11 68.5145 312.446 68.6525 312.854 68.6525ZM319.474 59.9405C320.254 59.9405 320.926 60.1205 321.49 60.4805C322.054 60.8405 322.486 61.3505 322.786 62.0105C323.098 62.6585 323.254 63.4205 323.254 64.2965V65.2505H317.062C317.086 66.3425 317.344 67.1765 317.836 67.7525C318.328 68.3165 319.018 68.5985 319.906 68.5985C320.482 68.5985 320.992 68.5445 321.436 68.4365C321.892 68.3165 322.36 68.1485 322.84 67.9325V69.3185C322.372 69.5345 321.91 69.6905 321.454 69.7865C321.01 69.8945 320.47 69.9485 319.834 69.9485C318.97 69.9485 318.208 69.7625 317.548 69.3905C316.888 69.0185 316.372 68.4665 316 67.7345C315.628 66.9905 315.442 66.0845 315.442 65.0165C315.442 63.9605 315.61 63.0545 315.946 62.2985C316.282 61.5425 316.75 60.9605 317.35 60.5525C317.962 60.1445 318.67 59.9405 319.474 59.9405ZM319.474 61.2365C318.778 61.2365 318.226 61.4825 317.818 61.9745C317.41 62.4545 317.17 63.1265 317.098 63.9905H321.634C321.634 63.4385 321.556 62.9585 321.4 62.5505C321.244 62.1425 321.004 61.8245 320.68 61.5965C320.368 61.3565 319.966 61.2365 319.474 61.2365ZM331.484 67.1045C331.484 67.7285 331.334 68.2505 331.034 68.6705C330.746 69.0905 330.332 69.4085 329.792 69.6245C329.252 69.8405 328.604 69.9485 327.848 69.9485C327.212 69.9485 326.66 69.8945 326.192 69.7865C325.736 69.6785 325.334 69.5285 324.986 69.3365V67.8965C325.358 68.0885 325.802 68.2685 326.318 68.4365C326.834 68.5925 327.356 68.6705 327.884 68.6705C328.616 68.6705 329.144 68.5445 329.468 68.2925C329.804 68.0285 329.972 67.6805 329.972 67.2485C329.972 67.0085 329.906 66.7925 329.774 66.6005C329.654 66.4085 329.432 66.2165 329.108 66.0245C328.796 65.8325 328.34 65.6165 327.74 65.3765C327.164 65.1365 326.666 64.8965 326.246 64.6565C325.838 64.4165 325.52 64.1285 325.292 63.7925C325.076 63.4565 324.968 63.0245 324.968 62.4965C324.968 61.6805 325.28 61.0505 325.904 60.6065C326.54 60.1625 327.368 59.9405 328.388 59.9405C328.94 59.9405 329.456 60.0005 329.936 60.1205C330.416 60.2285 330.872 60.3845 331.304 60.5885L330.782 61.8485C330.53 61.7285 330.266 61.6265 329.99 61.5425C329.714 61.4465 329.432 61.3745 329.144 61.3265C328.868 61.2665 328.586 61.2365 328.298 61.2365C327.71 61.2365 327.26 61.3445 326.948 61.5605C326.636 61.7645 326.48 62.0465 326.48 62.4065C326.48 62.6705 326.552 62.8985 326.696 63.0905C326.84 63.2825 327.074 63.4685 327.398 63.6485C327.734 63.8165 328.19 64.0145 328.766 64.2425C329.342 64.4705 329.834 64.7045 330.242 64.9445C330.65 65.1845 330.956 65.4785 331.16 65.8265C331.376 66.1625 331.484 66.5885 331.484 67.1045ZM336.688 64.8365C336.688 65.7965 336.598 66.7385 336.418 67.6625C336.25 68.5865 335.98 69.4625 335.608 70.2905C335.248 71.1305 334.78 71.9045 334.204 72.6125H332.764C333.28 71.8565 333.712 71.0525 334.06 70.2005C334.408 69.3605 334.672 68.4845 334.852 67.5725C335.032 66.6605 335.122 65.7425 335.122 64.8185C335.122 63.8705 335.032 62.9345 334.852 62.0105C334.672 61.0865 334.408 60.1925 334.06 59.3285C333.712 58.4645 333.274 57.6605 332.746 56.9165H334.204C334.78 57.6365 335.248 58.4225 335.608 59.2745C335.98 60.1265 336.25 61.0205 336.418 61.9565C336.598 62.8925 336.688 63.8525 336.688 64.8365Z" fill="#444444"/>
</g>
<g opacity="0.8">
<path d="M128.77 64.5333C128.77 71.1607 123.397 76.5333 116.77 76.5333H13.202C6.57462 76.5333 1.20203 71.1607 1.20203 64.5333L1.20203 12.4667C1.20203 5.83924 6.57461 0.46666 13.202 0.46666H116.77C123.397 0.46666 128.77 5.83924 128.77 12.4667V64.5333Z" fill="#FEC51D" fill-opacity="0.8" stroke="#E5ECF6" stroke-width="0.5"/>
<path d="M17.9131 13.556C17.9131 14.516 17.8111 15.392 17.6071 16.184C17.4151 16.976 17.1151 17.666 16.7071 18.254C16.2991 18.83 15.7711 19.28 15.1231 19.604L18.0391 23.06H14.3671L12.2431 20.18C12.2311 20.18 12.2131 20.18 12.1891 20.18C12.1651 20.18 12.1351 20.18 12.0991 20.18C11.1031 20.18 10.2391 20.024 9.50707 19.712C8.77507 19.388 8.16907 18.938 7.68907 18.362C7.22107 17.774 6.86707 17.072 6.62707 16.256C6.39907 15.44 6.28507 14.534 6.28507 13.538C6.28507 12.206 6.48907 11.048 6.89707 10.064C7.31707 9.08 7.95907 8.318 8.82307 7.778C9.68707 7.226 10.7851 6.95 12.1171 6.95C13.4611 6.95 14.5591 7.226 15.4111 7.778C16.2631 8.318 16.8931 9.086 17.3011 10.082C17.7091 11.066 17.9131 12.224 17.9131 13.556ZM9.34507 13.556C9.34507 14.456 9.43507 15.23 9.61507 15.878C9.80707 16.526 10.1071 17.024 10.5151 17.372C10.9231 17.72 11.4511 17.894 12.0991 17.894C12.7591 17.894 13.2871 17.72 13.6831 17.372C14.0911 17.024 14.3851 16.526 14.5651 15.878C14.7571 15.23 14.8531 14.456 14.8531 13.556C14.8531 12.2 14.6371 11.138 14.2051 10.37C13.7851 9.602 13.0891 9.218 12.1171 9.218C11.4571 9.218 10.9231 9.392 10.5151 9.74C10.1071 10.088 9.80707 10.586 9.61507 11.234C9.43507 11.882 9.34507 12.656 9.34507 13.556ZM26.7519 14.816C26.7159 14.612 26.6739 14.408 26.6259 14.204C26.5899 13.988 26.5479 13.778 26.4999 13.574C26.4639 13.37 26.4339 13.172 26.4099 12.98C26.3859 12.776 26.3619 12.584 26.3379 12.404H26.2839C26.2719 12.584 26.2479 12.776 26.2119 12.98C26.1879 13.184 26.1579 13.394 26.1219 13.61C26.0859 13.814 26.0439 14.024 25.9959 14.24C25.9599 14.456 25.9179 14.672 25.8699 14.888L24.7359 20H21.3699L19.0119 10.172H21.8199L22.7559 15.194C22.8159 15.494 22.8699 15.8 22.9179 16.112C22.9659 16.412 23.0079 16.706 23.0439 16.994C23.0919 17.27 23.1219 17.522 23.1339 17.75H23.2059C23.2299 17.582 23.2599 17.378 23.2959 17.138C23.3319 16.898 23.3679 16.658 23.4039 16.418C23.4519 16.166 23.4939 15.938 23.5299 15.734C23.5659 15.53 23.5959 15.38 23.6199 15.284L24.7539 10.172H27.8859L28.9839 15.266C29.0199 15.434 29.0619 15.674 29.1099 15.986C29.1579 16.286 29.1999 16.598 29.2359 16.922C29.2839 17.246 29.3139 17.522 29.3259 17.75H29.3799C29.4039 17.522 29.4339 17.27 29.4699 16.994C29.5179 16.718 29.5659 16.424 29.6139 16.112C29.6739 15.8 29.7339 15.494 29.7939 15.194L30.8379 10.172H33.5739L31.1439 20H27.7959L26.7519 14.816ZM38.9937 9.992C39.8697 9.992 40.6257 10.166 41.2617 10.514C41.8977 10.862 42.3897 11.366 42.7377 12.026C43.0857 12.686 43.2597 13.496 43.2597 14.456V15.752H37.4097C37.4337 16.508 37.6257 17.102 37.9857 17.534C38.3577 17.966 38.8857 18.182 39.5697 18.182C40.1697 18.182 40.7097 18.122 41.1897 18.002C41.6817 17.87 42.1857 17.672 42.7017 17.408V19.478C42.2577 19.718 41.7717 19.892 41.2437 20C40.7277 20.12 40.0857 20.18 39.3177 20.18C38.3817 20.18 37.5477 20 36.8157 19.64C36.0957 19.268 35.5257 18.71 35.1057 17.966C34.6977 17.222 34.4937 16.286 34.4937 15.158C34.4937 14.006 34.6797 13.052 35.0517 12.296C35.4357 11.528 35.9637 10.952 36.6357 10.568C37.3197 10.184 38.1057 9.992 38.9937 9.992ZM39.0477 11.9C38.6157 11.9 38.2557 12.068 37.9677 12.404C37.6797 12.74 37.5117 13.262 37.4637 13.97H40.6137C40.6137 13.574 40.5537 13.22 40.4337 12.908C40.3137 12.596 40.1397 12.35 39.9117 12.17C39.6837 11.99 39.3957 11.9 39.0477 11.9ZM50.7542 9.992C51.7382 9.992 52.5302 10.28 53.1302 10.856C53.7422 11.42 54.0482 12.332 54.0482 13.592V20H51.1682V14.258C51.1682 13.55 51.0602 13.022 50.8442 12.674C50.6402 12.314 50.3102 12.134 49.8542 12.134C49.1582 12.134 48.6902 12.416 48.4502 12.98C48.2102 13.532 48.0902 14.33 48.0902 15.374V20H45.2102V10.172H47.3882L47.7842 11.432H47.9102C48.1142 11.096 48.3542 10.826 48.6302 10.622C48.9182 10.406 49.2422 10.25 49.6022 10.154C49.9622 10.046 50.3462 9.992 50.7542 9.992ZM68.8112 20H60.2072V18.11L63.1952 14.852C63.8072 14.18 64.2872 13.622 64.6352 13.178C64.9952 12.722 65.2472 12.314 65.3912 11.954C65.5472 11.582 65.6252 11.186 65.6252 10.766C65.6252 10.25 65.4992 9.866 65.2472 9.614C65.0072 9.362 64.6952 9.236 64.3112 9.236C63.8912 9.236 63.4712 9.35 63.0512 9.578C62.6432 9.806 62.1932 10.13 61.7012 10.55L60.1172 8.804C60.4772 8.48 60.8552 8.18 61.2512 7.904C61.6472 7.628 62.1152 7.406 62.6552 7.238C63.1952 7.058 63.8432 6.968 64.5992 6.968C65.4032 6.968 66.0992 7.124 66.6872 7.436C67.2752 7.736 67.7252 8.15 68.0372 8.678C68.3612 9.194 68.5232 9.782 68.5232 10.442C68.5232 10.982 68.4452 11.474 68.2892 11.918C68.1332 12.362 67.9052 12.8 67.6052 13.232C67.3172 13.664 66.9692 14.114 66.5612 14.582C66.1532 15.038 65.6972 15.554 65.1932 16.13L63.8972 17.588L63.8792 17.714H68.8112V20ZM82.6187 20L81.8807 16.94H77.7227L76.9667 20H73.7987L77.9027 7.094H81.6467L85.7687 20H82.6187ZM80.4047 11.666C80.3327 11.414 80.2607 11.15 80.1887 10.874C80.1167 10.598 80.0447 10.31 79.9727 10.01C79.9127 9.71 79.8527 9.404 79.7927 9.092C79.7447 9.404 79.6847 9.716 79.6127 10.028C79.5407 10.328 79.4687 10.616 79.3967 10.892C79.3367 11.168 79.2707 11.426 79.1987 11.666L78.3707 14.654H81.2507L80.4047 11.666ZM95.7774 10.172V20H93.5994L93.2214 18.74H93.0594C92.8674 19.076 92.6214 19.352 92.3214 19.568C92.0334 19.772 91.7094 19.922 91.3494 20.018C90.9894 20.126 90.6174 20.18 90.2334 20.18C89.5974 20.18 89.0334 20.054 88.5414 19.802C88.0494 19.55 87.6594 19.16 87.3714 18.632C87.0954 18.104 86.9574 17.42 86.9574 16.58V10.172H89.8374V15.914C89.8374 16.61 89.9394 17.138 90.1434 17.498C90.3474 17.858 90.6774 18.038 91.1334 18.038C91.6014 18.038 91.9614 17.912 92.2134 17.66C92.4654 17.408 92.6394 17.042 92.7354 16.562C92.8434 16.082 92.8974 15.494 92.8974 14.798V10.172H95.7774ZM101.142 20.18C100.146 20.18 99.3298 19.754 98.6938 18.902C98.0578 18.038 97.7398 16.772 97.7398 15.104C97.7398 13.424 98.0638 12.152 98.7118 11.288C99.3598 10.424 100.2 9.992 101.232 9.992C101.664 9.992 102.036 10.058 102.348 10.19C102.672 10.31 102.948 10.478 103.176 10.694C103.416 10.91 103.62 11.156 103.788 11.432H103.86C103.824 11.24 103.788 10.964 103.752 10.604C103.716 10.232 103.698 9.854 103.698 9.47V6.32H106.578V20H104.4L103.806 18.722H103.698C103.542 18.986 103.35 19.232 103.122 19.46C102.894 19.676 102.618 19.85 102.294 19.982C101.97 20.114 101.586 20.18 101.142 20.18ZM102.24 18.038C102.84 18.038 103.266 17.822 103.518 17.39C103.782 16.946 103.914 16.286 103.914 15.41V15.122C103.914 14.162 103.794 13.43 103.554 12.926C103.314 12.422 102.864 12.17 102.204 12.17C101.736 12.17 101.358 12.428 101.07 12.944C100.794 13.448 100.656 14.18 100.656 15.14C100.656 16.1 100.794 16.826 101.07 17.318C101.358 17.798 101.748 18.038 102.24 18.038ZM111.899 10.172V20H109.019V10.172H111.899ZM110.477 6.32C110.897 6.32 111.257 6.416 111.557 6.608C111.857 6.788 112.007 7.13 112.007 7.634C112.007 8.126 111.857 8.468 111.557 8.66C111.257 8.852 110.897 8.948 110.477 8.948C110.045 8.948 109.679 8.852 109.379 8.66C109.079 8.468 108.929 8.126 108.929 7.634C108.929 7.13 109.079 6.788 109.379 6.608C109.679 6.416 110.045 6.32 110.477 6.32ZM123.003 15.068C123.003 15.884 122.895 16.61 122.679 17.246C122.475 17.882 122.175 18.422 121.779 18.866C121.383 19.298 120.897 19.628 120.321 19.856C119.757 20.072 119.121 20.18 118.413 20.18C117.753 20.18 117.141 20.072 116.577 19.856C116.013 19.628 115.527 19.298 115.119 18.866C114.723 18.422 114.411 17.882 114.183 17.246C113.967 16.61 113.859 15.884 113.859 15.068C113.859 13.976 114.045 13.058 114.417 12.314C114.789 11.558 115.317 10.982 116.001 10.586C116.685 10.19 117.507 9.992 118.467 9.992C119.355 9.992 120.135 10.19 120.807 10.586C121.491 10.982 122.025 11.558 122.409 12.314C122.805 13.058 123.003 13.976 123.003 15.068ZM116.793 15.068C116.793 15.716 116.847 16.262 116.955 16.706C117.075 17.138 117.255 17.468 117.495 17.696C117.747 17.912 118.065 18.02 118.449 18.02C118.845 18.02 119.157 17.912 119.385 17.696C119.625 17.468 119.799 17.138 119.907 16.706C120.015 16.262 120.069 15.716 120.069 15.068C120.069 14.42 120.015 13.88 119.907 13.448C119.799 13.016 119.619 12.692 119.367 12.476C119.127 12.26 118.815 12.152 118.431 12.152C117.843 12.152 117.423 12.398 117.171 12.89C116.919 13.37 116.793 14.096 116.793 15.068Z" fill="#444444"/>
<path d="M16.6271 45H8.25712V43.326L11.2991 40.014C11.9111 39.354 12.4031 38.79 12.7751 38.322C13.1471 37.842 13.4171 37.398 13.5851 36.99C13.7651 36.582 13.8551 36.138 13.8551 35.658C13.8551 35.07 13.7051 34.632 13.4051 34.344C13.1171 34.044 12.7331 33.894 12.2531 33.894C11.7731 33.894 11.3171 34.008 10.8851 34.236C10.4651 34.452 10.0211 34.764 9.55312 35.172L8.23912 33.678C8.58712 33.366 8.95312 33.084 9.33712 32.832C9.72112 32.568 10.1651 32.358 10.6691 32.202C11.1851 32.046 11.7791 31.968 12.4511 31.968C13.2311 31.968 13.9031 32.118 14.4671 32.418C15.0431 32.706 15.4871 33.108 15.7991 33.624C16.1111 34.14 16.2671 34.74 16.2671 35.424C16.2671 35.952 16.1891 36.438 16.0331 36.882C15.8891 37.326 15.6731 37.764 15.3851 38.196C15.0971 38.628 14.7551 39.072 14.3591 39.528C13.9631 39.984 13.5191 40.482 13.0271 41.022L11.2811 42.93V43.038H16.6271V45ZM22.1894 31.986C22.9214 31.986 23.5754 32.1 24.1514 32.328C24.7274 32.556 25.1834 32.898 25.5194 33.354C25.8554 33.81 26.0234 34.38 26.0234 35.064C26.0234 35.58 25.9274 36.036 25.7354 36.432C25.5434 36.816 25.2794 37.152 24.9434 37.44C24.6074 37.728 24.2354 37.986 23.8274 38.214C24.2714 38.454 24.6854 38.736 25.0694 39.06C25.4654 39.372 25.7834 39.744 26.0234 40.176C26.2634 40.596 26.3834 41.094 26.3834 41.67C26.3834 42.378 26.2154 42.996 25.8794 43.524C25.5554 44.052 25.0814 44.46 24.4574 44.748C23.8334 45.036 23.0774 45.18 22.1894 45.18C21.2654 45.18 20.4914 45.042 19.8674 44.766C19.2434 44.49 18.7694 44.094 18.4454 43.578C18.1334 43.062 17.9774 42.45 17.9774 41.742C17.9774 41.154 18.0794 40.644 18.2834 40.212C18.4994 39.78 18.7874 39.408 19.1474 39.096C19.5074 38.772 19.8974 38.502 20.3174 38.286C19.9574 38.046 19.6214 37.776 19.3094 37.476C19.0094 37.164 18.7754 36.816 18.6074 36.432C18.4394 36.036 18.3554 35.574 18.3554 35.046C18.3554 34.374 18.5234 33.81 18.8594 33.354C19.1954 32.898 19.6514 32.556 20.2274 32.328C20.8154 32.1 21.4694 31.986 22.1894 31.986ZM20.2274 41.634C20.2274 42.162 20.3894 42.6 20.7134 42.948C21.0374 43.284 21.5234 43.452 22.1714 43.452C22.6154 43.452 22.9814 43.38 23.2694 43.236C23.5574 43.08 23.7734 42.864 23.9174 42.588C24.0734 42.312 24.1514 41.994 24.1514 41.634C24.1514 41.274 24.0614 40.956 23.8814 40.68C23.7134 40.404 23.4854 40.158 23.1974 39.942C22.9094 39.714 22.6034 39.516 22.2794 39.348L22.0454 39.222C21.6734 39.414 21.3494 39.63 21.0734 39.87C20.8094 40.098 20.5994 40.356 20.4434 40.644C20.2994 40.932 20.2274 41.262 20.2274 41.634ZM22.1714 33.696C21.7394 33.696 21.3734 33.828 21.0734 34.092C20.7734 34.356 20.6234 34.728 20.6234 35.208C20.6234 35.556 20.6954 35.856 20.8394 36.108C20.9834 36.36 21.1754 36.576 21.4154 36.756C21.6554 36.936 21.9194 37.11 22.2074 37.278C22.4714 37.122 22.7174 36.954 22.9454 36.774C23.1854 36.594 23.3774 36.378 23.5214 36.126C23.6654 35.874 23.7374 35.568 23.7374 35.208C23.7374 34.728 23.5874 34.356 23.2874 34.092C22.9994 33.828 22.6274 33.696 22.1714 33.696ZM30.3977 31.968C31.3097 31.968 32.0117 32.322 32.5037 33.03C32.9957 33.726 33.2417 34.71 33.2417 35.982C33.2417 37.254 33.0077 38.25 32.5397 38.97C32.0837 39.678 31.3697 40.032 30.3977 40.032C29.8097 40.032 29.3057 39.87 28.8857 39.546C28.4777 39.222 28.1597 38.76 27.9317 38.16C27.7157 37.548 27.6077 36.822 27.6077 35.982C27.6077 34.71 27.8357 33.726 28.2917 33.03C28.7477 32.322 29.4497 31.968 30.3977 31.968ZM30.4157 33.534C30.1037 33.534 29.8757 33.738 29.7317 34.146C29.5997 34.554 29.5337 35.166 29.5337 35.982C29.5337 36.81 29.5997 37.434 29.7317 37.854C29.8757 38.262 30.1037 38.466 30.4157 38.466C30.7397 38.466 30.9737 38.262 31.1177 37.854C31.2617 37.434 31.3337 36.816 31.3337 36C31.3337 35.172 31.2617 34.554 31.1177 34.146C30.9737 33.738 30.7397 33.534 30.4157 33.534ZM38.8577 32.148L32.1617 45H30.2717L36.9677 32.148H38.8577ZM38.7137 37.098C39.3257 37.098 39.8417 37.26 40.2617 37.584C40.6817 37.896 40.9997 38.352 41.2157 38.952C41.4437 39.54 41.5577 40.26 41.5577 41.112C41.5577 42.384 41.3237 43.38 40.8557 44.1C40.3877 44.808 39.6737 45.162 38.7137 45.162C38.1257 45.162 37.6217 45 37.2017 44.676C36.7937 44.352 36.4757 43.89 36.2477 43.29C36.0317 42.678 35.9237 41.952 35.9237 41.112C35.9237 39.84 36.1517 38.856 36.6077 38.16C37.0757 37.452 37.7777 37.098 38.7137 37.098ZM38.7317 38.682C38.4197 38.682 38.1917 38.886 38.0477 39.294C37.9157 39.69 37.8497 40.302 37.8497 41.13C37.8497 41.958 37.9157 42.582 38.0477 43.002C38.1917 43.41 38.4197 43.614 38.7317 43.614C39.0437 43.614 39.2717 43.41 39.4157 43.002C39.5717 42.594 39.6497 41.97 39.6497 41.13C39.6497 40.302 39.5717 39.69 39.4157 39.294C39.2717 38.886 39.0437 38.682 38.7317 38.682ZM62.8882 32.148L59.7922 45H57.0562L55.3102 37.62C55.2742 37.44 55.2262 37.218 55.1662 36.954C55.1182 36.69 55.0642 36.42 55.0042 36.144C54.9442 35.856 54.8962 35.592 54.8602 35.352C54.8242 35.1 54.7942 34.914 54.7702 34.794C54.7582 34.914 54.7282 35.1 54.6802 35.352C54.6442 35.592 54.5962 35.856 54.5362 36.144C54.4882 36.42 54.4342 36.696 54.3742 36.972C54.3262 37.236 54.2782 37.464 54.2302 37.656L52.5022 45H49.7662L46.6702 32.148H49.0822L50.6662 39.474C50.7022 39.714 50.7502 39.978 50.8102 40.266C50.8702 40.542 50.9242 40.83 50.9722 41.13C51.0322 41.418 51.0862 41.706 51.1342 41.994C51.1822 42.27 51.2182 42.516 51.2422 42.732C51.2782 42.504 51.3202 42.252 51.3682 41.976C51.4162 41.688 51.4642 41.4 51.5122 41.112C51.5722 40.812 51.6322 40.524 51.6922 40.248C51.7522 39.972 51.8062 39.732 51.8542 39.528L53.6182 32.148H55.9222L57.7042 39.582C57.7522 39.786 57.8062 40.026 57.8662 40.302C57.9262 40.566 57.9802 40.848 58.0282 41.148C58.0882 41.436 58.1422 41.718 58.1902 41.994C58.2382 42.27 58.2802 42.516 58.3162 42.732C58.3522 42.432 58.4002 42.09 58.4602 41.706C58.5322 41.322 58.6102 40.932 58.6942 40.536C58.7782 40.14 58.8502 39.786 58.9102 39.474L60.4942 32.148H62.8882ZM66.7397 35.244V45H64.3637V35.244H66.7397ZM65.5697 31.482C65.9177 31.482 66.2177 31.572 66.4697 31.752C66.7217 31.92 66.8477 32.226 66.8477 32.67C66.8477 33.102 66.7217 33.414 66.4697 33.606C66.2177 33.786 65.9177 33.876 65.5697 33.876C65.1977 33.876 64.8857 33.786 64.6337 33.606C64.3817 33.414 64.2557 33.102 64.2557 32.67C64.2557 32.226 64.3817 31.92 64.6337 31.752C64.8857 31.572 65.1977 31.482 65.5697 31.482ZM74.4679 35.064C75.4879 35.064 76.2919 35.346 76.8799 35.91C77.4679 36.474 77.7619 37.386 77.7619 38.646V45H75.3679V39.096C75.3679 38.364 75.2419 37.818 74.9899 37.458C74.7379 37.086 74.3419 36.9 73.8019 36.9C72.9979 36.9 72.4519 37.188 72.1639 37.764C71.8759 38.328 71.7319 39.15 71.7319 40.23V45H69.3379V35.244H71.1739L71.5159 36.522H71.6059C71.8219 36.186 72.0739 35.91 72.3619 35.694C72.6499 35.478 72.9739 35.322 73.3339 35.226C73.6939 35.118 74.0719 35.064 74.4679 35.064ZM88.4992 32.148C89.5672 32.148 90.4492 32.286 91.1452 32.562C91.8412 32.838 92.3572 33.258 92.6932 33.822C93.0292 34.374 93.1972 35.076 93.1972 35.928C93.1972 36.552 93.0952 37.086 92.8912 37.53C92.6872 37.974 92.4112 38.346 92.0632 38.646C91.7272 38.934 91.3612 39.168 90.9652 39.348L94.4212 45H91.6852L88.8952 39.924H87.3292V45H84.9172V32.148H88.4992ZM88.3912 34.074H87.3292V38.034H88.4272C88.9432 38.034 89.3692 37.956 89.7052 37.8C90.0532 37.644 90.3112 37.416 90.4792 37.116C90.6592 36.816 90.7492 36.444 90.7492 36C90.7492 35.532 90.6652 35.16 90.4972 34.884C90.3292 34.596 90.0712 34.392 89.7232 34.272C89.3752 34.14 88.9312 34.074 88.3912 34.074ZM99.6462 35.064C100.822 35.064 101.722 35.34 102.346 35.892C102.97 36.432 103.282 37.284 103.282 38.448V45H101.608L101.14 43.65H101.068C100.804 43.998 100.534 44.292 100.258 44.532C99.9822 44.76 99.6642 44.922 99.3042 45.018C98.9442 45.126 98.5122 45.18 98.0082 45.18C97.4682 45.18 96.9822 45.072 96.5502 44.856C96.1182 44.64 95.7762 44.31 95.5242 43.866C95.2722 43.41 95.1462 42.84 95.1462 42.156C95.1462 41.148 95.4942 40.392 96.1902 39.888C96.8862 39.372 97.9302 39.09 99.3222 39.042L100.888 38.988V38.502C100.888 37.878 100.756 37.434 100.492 37.17C100.228 36.906 99.8682 36.774 99.4122 36.774C98.9802 36.774 98.5422 36.846 98.0982 36.99C97.6662 37.134 97.2402 37.302 96.8202 37.494L96.0822 35.91C96.5742 35.658 97.1202 35.454 97.7202 35.298C98.3202 35.142 98.9622 35.064 99.6462 35.064ZM99.8802 40.428C99.0282 40.464 98.4342 40.638 98.0982 40.95C97.7622 41.25 97.5942 41.658 97.5942 42.174C97.5942 42.63 97.7082 42.96 97.9362 43.164C98.1762 43.368 98.4882 43.47 98.8722 43.47C99.4362 43.47 99.9162 43.284 100.312 42.912C100.708 42.528 100.906 41.964 100.906 41.22V40.392L99.8802 40.428ZM109.628 43.362C109.892 43.362 110.144 43.338 110.384 43.29C110.636 43.23 110.87 43.164 111.086 43.092V44.784C110.834 44.892 110.528 44.982 110.168 45.054C109.808 45.138 109.406 45.18 108.962 45.18C108.41 45.18 107.918 45.09 107.486 44.91C107.054 44.718 106.712 44.394 106.46 43.938C106.22 43.482 106.1 42.846 106.1 42.03V36.954H104.876V35.964L106.244 35.172L106.964 33.102H108.476V35.244H110.996V36.954H108.476V42.012C108.476 42.468 108.578 42.81 108.782 43.038C108.998 43.254 109.28 43.362 109.628 43.362ZM116.695 35.064C117.535 35.064 118.255 35.244 118.855 35.604C119.467 35.952 119.941 36.456 120.277 37.116C120.613 37.764 120.781 38.556 120.781 39.492V40.644H114.805C114.829 41.532 115.045 42.222 115.453 42.714C115.873 43.194 116.461 43.434 117.217 43.434C117.817 43.434 118.351 43.374 118.819 43.254C119.287 43.122 119.773 42.936 120.277 42.696V44.514C119.821 44.742 119.347 44.91 118.855 45.018C118.363 45.126 117.757 45.18 117.037 45.18C116.125 45.18 115.315 45 114.607 44.64C113.911 44.268 113.365 43.71 112.969 42.966C112.573 42.222 112.375 41.298 112.375 40.194C112.375 39.078 112.555 38.142 112.915 37.386C113.275 36.618 113.779 36.042 114.427 35.658C115.087 35.262 115.843 35.064 116.695 35.064ZM116.731 36.738C116.191 36.738 115.753 36.936 115.417 37.332C115.093 37.716 114.901 38.292 114.841 39.06H118.513C118.513 38.604 118.447 38.202 118.315 37.854C118.183 37.506 117.985 37.236 117.721 37.044C117.469 36.84 117.139 36.738 116.731 36.738Z" fill="#444444"/>
<path d="M21.3616 65.068C21.3616 64.084 21.4456 63.124 21.6136 62.188C21.7936 61.252 22.0696 60.358 22.4416 59.506C22.8136 58.654 23.2816 57.868 23.8456 57.148H25.3036C24.7876 57.892 24.3496 58.696 23.9896 59.56C23.6416 60.424 23.3776 61.318 23.1976 62.242C23.0176 63.166 22.9276 64.102 22.9276 65.05C22.9276 65.974 23.0176 66.892 23.1976 67.804C23.3776 68.716 23.6416 69.592 23.9896 70.432C24.3376 71.284 24.7696 72.088 25.2856 72.844H23.8456C23.2816 72.136 22.8136 71.362 22.4416 70.522C22.0696 69.694 21.7936 68.818 21.6136 67.894C21.4456 66.97 21.3616 66.028 21.3616 65.068ZM31.8764 70H30.3464V61.018C30.3464 60.67 30.3464 60.376 30.3464 60.136C30.3584 59.896 30.3704 59.674 30.3824 59.47C30.3944 59.254 30.4064 59.032 30.4184 58.804C30.2504 58.996 30.0884 59.164 29.9324 59.308C29.7764 59.44 29.5904 59.602 29.3744 59.794L28.0964 60.91L27.2684 59.848L30.5804 57.148H31.8764V70ZM44.8204 67.084H43.0744V70H41.5624V67.084H35.8204V65.734L41.4724 57.076H43.0744V65.662H44.8204V67.084ZM41.5624 61.612C41.5624 61.3 41.5624 61.018 41.5624 60.766C41.5744 60.502 41.5864 60.256 41.5984 60.028C41.6104 59.8 41.6164 59.584 41.6164 59.38C41.6284 59.164 41.6404 58.96 41.6524 58.768H41.5804C41.4844 58.996 41.3704 59.242 41.2384 59.506C41.1064 59.77 40.9804 59.992 40.8604 60.172L37.3324 65.662H41.5624V61.612ZM49.9704 56.968C50.6784 56.968 51.3024 57.088 51.8424 57.328C52.3944 57.556 52.8264 57.898 53.1384 58.354C53.4504 58.81 53.6064 59.374 53.6064 60.046C53.6064 60.562 53.4984 61.012 53.2824 61.396C53.0784 61.78 52.8024 62.122 52.4544 62.422C52.1184 62.71 51.7404 62.968 51.3204 63.196C51.8124 63.448 52.2624 63.736 52.6704 64.06C53.0784 64.372 53.4024 64.738 53.6424 65.158C53.8824 65.578 54.0024 66.082 54.0024 66.67C54.0024 67.39 53.8344 68.014 53.4984 68.542C53.1744 69.058 52.7124 69.46 52.1124 69.748C51.5244 70.036 50.8284 70.18 50.0244 70.18C49.1484 70.18 48.4044 70.042 47.7924 69.766C47.1924 69.49 46.7364 69.1 46.4244 68.596C46.1124 68.08 45.9564 67.456 45.9564 66.724C45.9564 66.136 46.0704 65.626 46.2984 65.194C46.5264 64.762 46.8264 64.39 47.1984 64.078C47.5824 63.766 47.9964 63.502 48.4404 63.286C48.0564 63.046 47.7024 62.776 47.3784 62.476C47.0664 62.164 46.8144 61.81 46.6224 61.414C46.4424 61.018 46.3524 60.556 46.3524 60.028C46.3524 59.368 46.5084 58.816 46.8204 58.372C47.1444 57.916 47.5764 57.568 48.1164 57.328C48.6684 57.088 49.2864 56.968 49.9704 56.968ZM47.4864 66.742C47.4864 67.366 47.6904 67.888 48.0984 68.308C48.5064 68.716 49.1364 68.92 49.9884 68.92C50.5284 68.92 50.9784 68.824 51.3384 68.632C51.7104 68.44 51.9924 68.176 52.1844 67.84C52.3764 67.504 52.4724 67.12 52.4724 66.688C52.4724 66.268 52.3644 65.902 52.1484 65.59C51.9444 65.266 51.6564 64.978 51.2844 64.726C50.9124 64.474 50.4804 64.246 49.9884 64.042L49.7364 63.934C49.2564 64.162 48.8484 64.408 48.5124 64.672C48.1764 64.936 47.9184 65.236 47.7384 65.572C47.5704 65.908 47.4864 66.298 47.4864 66.742ZM49.9524 58.246C49.3404 58.246 48.8364 58.408 48.4404 58.732C48.0564 59.044 47.8644 59.5 47.8644 60.1C47.8644 60.544 47.9604 60.916 48.1524 61.216C48.3564 61.516 48.6204 61.774 48.9444 61.99C49.2684 62.194 49.6284 62.392 50.0244 62.584C50.4084 62.404 50.7504 62.206 51.0504 61.99C51.3624 61.774 51.6084 61.516 51.7884 61.216C51.9684 60.904 52.0584 60.532 52.0584 60.1C52.0584 59.5 51.8664 59.044 51.4824 58.732C51.0984 58.408 50.5884 58.246 49.9524 58.246ZM69.4329 57.148L65.1309 70H63.5109L59.2089 57.148H60.8829L63.5649 65.392C63.6849 65.74 63.7869 66.076 63.8709 66.4C63.9669 66.724 64.0509 67.036 64.1229 67.336C64.2069 67.624 64.2729 67.912 64.3209 68.2C64.3689 67.912 64.4289 67.618 64.5009 67.318C64.5729 67.018 64.6569 66.706 64.7529 66.382C64.8609 66.058 64.9689 65.716 65.0769 65.356L67.7409 57.148H69.4329ZM78.4653 65.158C78.4653 65.962 78.3633 66.676 78.1593 67.3C77.9673 67.912 77.6853 68.434 77.3133 68.866C76.9413 69.298 76.4913 69.628 75.9633 69.856C75.4353 70.072 74.8473 70.18 74.1993 70.18C73.5993 70.18 73.0413 70.072 72.5253 69.856C72.0213 69.628 71.5773 69.298 71.1933 68.866C70.8213 68.434 70.5333 67.912 70.3293 67.3C70.1253 66.676 70.0233 65.962 70.0233 65.158C70.0233 64.09 70.1913 63.19 70.5273 62.458C70.8753 61.714 71.3673 61.15 72.0033 60.766C72.6393 60.37 73.3893 60.172 74.2533 60.172C75.0813 60.172 75.8073 60.37 76.4313 60.766C77.0673 61.15 77.5653 61.714 77.9253 62.458C78.2853 63.19 78.4653 64.09 78.4653 65.158ZM71.6433 65.158C71.6433 65.914 71.7333 66.574 71.9133 67.138C72.0933 67.69 72.3753 68.116 72.7593 68.416C73.1433 68.716 73.6353 68.866 74.2353 68.866C74.8353 68.866 75.3273 68.716 75.7113 68.416C76.0953 68.116 76.3773 67.69 76.5573 67.138C76.7493 66.574 76.8453 65.914 76.8453 65.158C76.8453 64.39 76.7493 63.736 76.5573 63.196C76.3773 62.656 76.0953 62.242 75.7113 61.954C75.3273 61.654 74.8293 61.504 74.2173 61.504C73.3173 61.504 72.6633 61.828 72.2553 62.476C71.8473 63.124 71.6433 64.018 71.6433 65.158ZM83.907 68.884C84.135 68.884 84.369 68.866 84.609 68.83C84.849 68.782 85.047 68.734 85.203 68.686V69.892C85.035 69.976 84.795 70.042 84.483 70.09C84.183 70.15 83.895 70.18 83.619 70.18C83.139 70.18 82.695 70.096 82.287 69.928C81.879 69.748 81.549 69.442 81.297 69.01C81.057 68.578 80.937 67.972 80.937 67.192V61.576H79.659V60.82L80.973 60.19L81.567 58.138H82.503V60.352H85.131V61.576H82.503V67.156C82.503 67.744 82.635 68.182 82.899 68.47C83.163 68.746 83.499 68.884 83.907 68.884ZM90.526 60.172C91.306 60.172 91.978 60.352 92.5421 60.712C93.1061 61.072 93.5381 61.582 93.8381 62.242C94.1501 62.89 94.3061 63.652 94.3061 64.528V65.482H88.114C88.138 66.574 88.396 67.408 88.8881 67.984C89.3801 68.548 90.0701 68.83 90.9581 68.83C91.534 68.83 92.044 68.776 92.488 68.668C92.9441 68.548 93.4121 68.38 93.8921 68.164V69.55C93.424 69.766 92.9621 69.922 92.5061 70.018C92.0621 70.126 91.5221 70.18 90.8861 70.18C90.022 70.18 89.26 69.994 88.6001 69.622C87.94 69.25 87.424 68.698 87.052 67.966C86.68 67.222 86.494 66.316 86.494 65.248C86.494 64.192 86.662 63.286 86.998 62.53C87.334 61.774 87.802 61.192 88.402 60.784C89.014 60.376 89.722 60.172 90.526 60.172ZM90.526 61.468C89.83 61.468 89.278 61.714 88.8701 62.206C88.462 62.686 88.222 63.358 88.15 64.222H92.686C92.686 63.67 92.6081 63.19 92.4521 62.782C92.2961 62.374 92.0561 62.056 91.732 61.828C91.4201 61.588 91.0181 61.468 90.526 61.468ZM102.536 67.336C102.536 67.96 102.386 68.482 102.086 68.902C101.798 69.322 101.384 69.64 100.844 69.856C100.304 70.072 99.6561 70.18 98.9001 70.18C98.2641 70.18 97.7121 70.126 97.2441 70.018C96.7881 69.91 96.3861 69.76 96.0381 69.568V68.128C96.4101 68.32 96.8541 68.5 97.3701 68.668C97.8861 68.824 98.4081 68.902 98.9361 68.902C99.6681 68.902 100.196 68.776 100.52 68.524C100.856 68.26 101.024 67.912 101.024 67.48C101.024 67.24 100.958 67.024 100.826 66.832C100.706 66.64 100.484 66.448 100.16 66.256C99.8481 66.064 99.3921 65.848 98.7921 65.608C98.2161 65.368 97.7181 65.128 97.2981 64.888C96.8901 64.648 96.5721 64.36 96.3441 64.024C96.1281 63.688 96.0201 63.256 96.0201 62.728C96.0201 61.912 96.3321 61.282 96.9561 60.838C97.5921 60.394 98.4201 60.172 99.4401 60.172C99.9921 60.172 100.508 60.232 100.988 60.352C101.468 60.46 101.924 60.616 102.356 60.82L101.834 62.08C101.582 61.96 101.318 61.858 101.042 61.774C100.766 61.678 100.484 61.606 100.196 61.558C99.9201 61.498 99.6381 61.468 99.3501 61.468C98.7621 61.468 98.3121 61.576 98.0001 61.792C97.6881 61.996 97.5321 62.278 97.5321 62.638C97.5321 62.902 97.6041 63.13 97.7481 63.322C97.8921 63.514 98.1261 63.7 98.4501 63.88C98.7861 64.048 99.2421 64.246 99.8181 64.474C100.394 64.702 100.886 64.936 101.294 65.176C101.702 65.416 102.008 65.71 102.212 66.058C102.428 66.394 102.536 66.82 102.536 67.336ZM107.741 65.068C107.741 66.028 107.651 66.97 107.471 67.894C107.303 68.818 107.033 69.694 106.661 70.522C106.301 71.362 105.833 72.136 105.257 72.844H103.817C104.333 72.088 104.765 71.284 105.113 70.432C105.461 69.592 105.725 68.716 105.905 67.804C106.085 66.892 106.175 65.974 106.175 65.05C106.175 64.102 106.085 63.166 105.905 62.242C105.725 61.318 105.461 60.424 105.113 59.56C104.765 58.696 104.327 57.892 103.799 57.148H105.257C105.833 57.868 106.301 58.654 106.661 59.506C107.033 60.358 107.303 61.252 107.471 62.188C107.651 63.124 107.741 64.084 107.741 65.068Z" fill="#444444"/>
</g>
<path d="M401.225 20.6986C400.998 21.7953 400.607 22.7139 400.053 23.4542C399.508 24.1945 398.828 24.752 398.013 25.1268C397.198 25.5015 396.268 25.6888 395.223 25.6888H392.535L394.56 15.9002H397.528C398.489 15.9002 399.282 16.083 399.907 16.4486C400.531 16.8142 400.961 17.3534 401.196 18.0663C401.433 18.7701 401.443 19.6475 401.225 20.6986ZM399.593 20.7397C399.763 19.9171 399.781 19.2408 399.648 18.7107C399.515 18.1806 399.237 17.7876 398.814 17.5316C398.401 17.2757 397.853 17.1478 397.172 17.1478H395.856L394.347 24.4413H395.439C396.568 24.4413 397.477 24.1305 398.166 23.509C398.864 22.8875 399.339 21.9644 399.593 20.7397ZM405.088 18.2994L403.559 25.6888H402.033L403.562 18.2994H405.088ZM404.927 15.4889C405.151 15.4889 405.334 15.5529 405.476 15.6808C405.617 15.8088 405.657 16.0236 405.594 16.3252C405.534 16.6177 405.405 16.8325 405.209 16.9695C405.015 17.0975 404.805 17.1615 404.581 17.1615C404.339 17.1615 404.147 17.0975 404.005 16.9695C403.865 16.8325 403.826 16.6177 403.886 16.3252C403.949 16.0236 404.077 15.8088 404.272 15.6808C404.466 15.5529 404.685 15.4889 404.927 15.4889ZM410.553 19.4099H408.831L407.531 25.6888L406.005 25.6888L407.305 19.4099H406.143L406.284 18.7244L407.54 18.272L407.636 17.8058C407.767 17.1752 407.96 16.6725 408.214 16.2978C408.481 15.9139 408.809 15.6351 409.199 15.4615C409.59 15.2878 410.042 15.201 410.555 15.201C410.863 15.201 411.142 15.2284 411.392 15.2833C411.642 15.3381 411.859 15.3975 412.041 15.4615L411.434 16.572C411.303 16.5263 411.148 16.4851 410.969 16.4486C410.801 16.4029 410.624 16.38 410.437 16.38C410.101 16.38 409.83 16.4989 409.622 16.7365C409.414 16.9741 409.26 17.3351 409.16 17.8195L409.06 18.2994H410.782L410.553 19.4099ZM415.327 19.4099H413.605L412.305 25.6888H410.779L412.079 19.4099H410.917L411.058 18.7244L412.314 18.272L412.41 17.8058C412.541 17.1752 412.734 16.6725 412.988 16.2978C413.255 15.9139 413.583 15.6351 413.973 15.4615C414.364 15.2878 414.816 15.201 415.329 15.201C415.637 15.201 415.916 15.2284 416.166 15.2833C416.416 15.3381 416.633 15.3975 416.815 15.4615L416.208 16.572C416.077 16.5263 415.922 16.4851 415.743 16.4486C415.575 16.4029 415.398 16.38 415.211 16.38C414.875 16.38 414.604 16.4989 414.396 16.7365C414.188 16.9741 414.034 17.3351 413.934 17.8195L413.834 18.2994H415.556L415.327 19.4099ZM419.64 18.1623C420.265 18.1623 420.778 18.2994 421.179 18.5736C421.581 18.8386 421.852 19.2225 421.99 19.7252C422.138 20.2279 422.141 20.8219 421.999 21.5074L421.835 22.3026H417.089C416.951 23.0612 417.017 23.6415 417.289 24.0437C417.56 24.4458 418.018 24.6469 418.662 24.6469C419.119 24.6469 419.534 24.6058 419.905 24.5235C420.288 24.4321 420.684 24.2996 421.094 24.126L420.844 25.3324C420.455 25.4969 420.066 25.6203 419.675 25.7026C419.294 25.7848 418.843 25.8259 418.32 25.8259C417.639 25.8259 417.061 25.6843 416.588 25.4009C416.114 25.1176 415.786 24.6972 415.603 24.1397C415.421 23.573 415.416 22.8784 415.586 22.0558C415.758 21.2241 416.039 20.5203 416.429 19.9445C416.819 19.3687 417.287 18.93 417.835 18.6284C418.394 18.3177 418.996 18.1623 419.64 18.1623ZM419.407 19.2865C418.931 19.2865 418.513 19.4556 418.154 19.7937C417.795 20.1319 417.527 20.6117 417.352 21.2332H420.558C420.638 20.8494 420.652 20.5112 420.6 20.2187C420.549 19.9262 420.423 19.6978 420.224 19.5332C420.034 19.3687 419.762 19.2865 419.407 19.2865ZM427.983 18.1623C428.105 18.1623 428.238 18.1714 428.384 18.1897C428.531 18.1988 428.654 18.2126 428.753 18.2308L428.318 19.5881C428.221 19.5607 428.109 19.5378 427.982 19.5195C427.855 19.5013 427.727 19.4921 427.596 19.4921C427.344 19.4921 427.09 19.547 426.834 19.6566C426.58 19.7572 426.339 19.908 426.11 20.109C425.884 20.301 425.685 20.5386 425.515 20.8219C425.344 21.1053 425.221 21.4297 425.145 21.7953L424.34 25.6888H422.828L424.357 18.2994H425.547L425.47 19.6155H425.554C425.749 19.3504 425.972 19.1082 426.223 18.8889C426.483 18.6695 426.761 18.4959 427.059 18.3679C427.358 18.2308 427.666 18.1623 427.983 18.1623ZM432.642 18.1623C433.267 18.1623 433.78 18.2994 434.18 18.5736C434.583 18.8386 434.854 19.2225 434.992 19.7252C435.14 20.2279 435.143 20.8219 435.001 21.5074L434.837 22.3026H430.091C429.953 23.0612 430.019 23.6415 430.291 24.0437C430.562 24.4458 431.02 24.6469 431.664 24.6469C432.121 24.6469 432.536 24.6058 432.907 24.5235C433.29 24.4321 433.686 24.2996 434.096 24.126L433.846 25.3324C433.457 25.4969 433.068 25.6203 432.677 25.7026C432.296 25.7848 431.845 25.8259 431.322 25.8259C430.641 25.8259 430.063 25.6843 429.59 25.4009C429.116 25.1176 428.788 24.6972 428.605 24.1397C428.423 23.573 428.418 22.8784 428.588 22.0558C428.76 21.2241 429.041 20.5203 429.431 19.9445C429.821 19.3687 430.289 18.93 430.837 18.6284C431.396 18.3177 431.998 18.1623 432.642 18.1623ZM432.409 19.2865C431.933 19.2865 431.515 19.4556 431.156 19.7937C430.797 20.1319 430.529 20.6117 430.354 21.2332H433.56C433.64 20.8494 433.654 20.5112 433.602 20.2187C433.551 19.9262 433.425 19.6978 433.226 19.5332C433.036 19.3687 432.764 19.2865 432.409 19.2865ZM441.083 18.1623C441.904 18.1623 442.49 18.3771 442.84 18.8066C443.199 19.2362 443.28 19.9262 443.083 20.8768L442.088 25.6888H440.576L441.529 21.0824C441.648 20.5066 441.62 20.0771 441.446 19.7937C441.282 19.5013 440.962 19.355 440.486 19.355C439.786 19.355 439.259 19.5789 438.905 20.0268C438.551 20.4746 438.287 21.119 438.113 21.9598L437.342 25.6888H435.83L437.359 18.2994H438.549L438.555 19.2865H438.639C438.85 19.0306 439.085 18.8203 439.343 18.6558C439.601 18.4913 439.879 18.3679 440.176 18.2857C440.473 18.2034 440.775 18.1623 441.083 18.1623ZM447.067 25.8259C446.405 25.8259 445.849 25.6934 445.4 25.4284C444.96 25.1633 444.657 24.752 444.493 24.1945C444.339 23.6278 444.353 22.9104 444.532 22.0421C444.721 21.1281 445.024 20.3878 445.44 19.8211C445.856 19.2545 446.348 18.8386 446.916 18.5736C447.486 18.2994 448.102 18.1623 448.765 18.1623C449.157 18.1623 449.521 18.208 449.857 18.2994C450.204 18.3816 450.482 18.4776 450.693 18.5873L449.99 19.7526C449.775 19.6612 449.541 19.5789 449.285 19.5058C449.029 19.4327 448.78 19.3961 448.538 19.3961C448.108 19.3961 447.733 19.4967 447.411 19.6978C447.101 19.8897 446.835 20.1822 446.614 20.5752C446.394 20.959 446.224 21.4434 446.103 22.0284C445.988 22.5859 445.96 23.0566 446.021 23.4405C446.081 23.8243 446.226 24.1168 446.455 24.3179C446.696 24.5098 447.012 24.6058 447.404 24.6058C447.786 24.6058 448.137 24.5601 448.454 24.4687C448.781 24.3773 449.09 24.2585 449.382 24.1122L449.121 25.3735C448.827 25.5289 448.519 25.6431 448.196 25.7163C447.873 25.7894 447.497 25.8259 447.067 25.8259ZM455.104 18.1623C455.73 18.1623 456.243 18.2994 456.643 18.5736C457.046 18.8386 457.316 19.2225 457.455 19.7252C457.603 20.2279 457.606 20.8219 457.464 21.5074L457.3 22.3026H452.554C452.415 23.0612 452.482 23.6415 452.754 24.0437C453.025 24.4458 453.483 24.6469 454.127 24.6469C454.584 24.6469 454.999 24.6058 455.37 24.5235C455.753 24.4321 456.149 24.2996 456.558 24.126L456.309 25.3324C455.92 25.4969 455.531 25.6203 455.14 25.7026C454.759 25.7848 454.307 25.8259 453.785 25.8259C453.103 25.8259 452.526 25.6843 452.053 25.4009C451.579 25.1176 451.251 24.6972 451.068 24.1397C450.886 23.573 450.881 22.8784 451.051 22.0558C451.223 21.2241 451.504 20.5203 451.894 19.9445C452.283 19.3687 452.752 18.93 453.3 18.6284C453.859 18.3177 454.46 18.1623 455.104 18.1623ZM454.872 19.2865C454.396 19.2865 453.978 19.4556 453.619 19.7937C453.26 20.1319 452.992 20.6117 452.817 21.2332H456.023C456.102 20.8494 456.116 20.5112 456.065 20.2187C456.013 19.9262 455.888 19.6978 455.689 19.5332C455.499 19.3687 455.227 19.2865 454.872 19.2865ZM385.991 41.6488C385.87 42.2337 385.631 42.7318 385.275 43.1431C384.92 43.5544 384.466 43.8743 383.915 44.1028C383.366 44.3221 382.727 44.4318 381.999 44.4318C381.644 44.4318 381.308 44.409 380.991 44.3633C380.681 44.3267 380.399 44.2719 380.143 44.1988C379.897 44.1256 379.668 44.0342 379.458 43.9246L379.747 42.5262C380.086 42.6907 380.48 42.8415 380.928 42.9786C381.386 43.1066 381.854 43.1705 382.33 43.1705C382.74 43.1705 383.089 43.1111 383.375 42.9923C383.67 42.8735 383.905 42.709 384.079 42.4988C384.262 42.2886 384.383 42.0418 384.442 41.7584C384.504 41.4568 384.486 41.2055 384.388 41.0044C384.301 40.7942 384.121 40.6023 383.849 40.4286C383.588 40.2458 383.226 40.0585 382.761 39.8665C382.437 39.7203 382.147 39.5649 381.892 39.4004C381.639 39.2267 381.428 39.0257 381.261 38.7972C381.103 38.5687 380.999 38.3036 380.949 38.002C380.909 37.7004 380.93 37.3485 381.014 36.9464C381.125 36.4071 381.351 35.9456 381.692 35.5617C382.033 35.1778 382.457 34.8854 382.966 34.6843C383.476 34.4741 384.044 34.369 384.669 34.369C385.192 34.369 385.661 34.4238 386.077 34.5335C386.495 34.634 386.881 34.7757 387.235 34.9585L386.493 36.1786C386.161 36.0233 385.819 35.8953 385.466 35.7948C385.123 35.6942 384.755 35.644 384.363 35.644C384.018 35.644 383.717 35.6988 383.461 35.8085C383.214 35.9182 383.015 36.069 382.864 36.2609C382.712 36.4528 382.609 36.6768 382.557 36.9327C382.494 37.2343 382.507 37.4856 382.597 37.6867C382.686 37.8878 382.857 38.0751 383.11 38.2488C383.365 38.4133 383.71 38.5961 384.145 38.7972C384.622 39.0165 385.017 39.2496 385.33 39.4964C385.645 39.734 385.86 40.0265 385.975 40.3738C386.091 40.7119 386.097 41.1369 385.991 41.6488ZM390.157 36.9053L388.628 44.2947H387.102L388.631 36.9053H390.157ZM389.997 34.0948C390.221 34.0948 390.403 34.1588 390.545 34.2867C390.686 34.4147 390.726 34.6295 390.663 34.9311C390.603 35.2235 390.475 35.4383 390.278 35.5754C390.084 35.7034 389.874 35.7674 389.65 35.7674C389.408 35.7674 389.216 35.7034 389.074 35.5754C388.935 35.4383 388.895 35.2235 388.955 34.9311C389.018 34.6295 389.146 34.4147 389.341 34.2867C389.535 34.1588 389.754 34.0948 389.997 34.0948ZM394.76 36.7682C395.217 36.7682 395.604 36.8596 395.921 37.0423C396.247 37.2251 396.498 37.5039 396.672 37.8786H396.728L397.097 36.9053H398.343L396.795 44.3907C396.651 45.0853 396.408 45.6703 396.067 46.1455C395.726 46.6208 395.284 46.9772 394.74 47.2149C394.194 47.4616 393.544 47.585 392.788 47.585C392.265 47.585 391.796 47.5485 391.382 47.4753C390.977 47.4022 390.609 47.288 390.277 47.1326L390.541 45.8576C390.757 45.9856 390.997 46.0907 391.26 46.1729C391.521 46.2643 391.802 46.3283 392.102 46.3649C392.41 46.4106 392.732 46.4334 393.068 46.4334C393.647 46.4334 394.126 46.2598 394.506 45.9125C394.893 45.5743 395.151 45.0944 395.279 44.4729L395.331 44.2262C395.355 44.1074 395.392 43.952 395.441 43.76C395.492 43.559 395.532 43.4127 395.56 43.3213H395.504C395.191 43.7052 394.838 43.9885 394.446 44.1713C394.065 44.345 393.636 44.4318 393.16 44.4318C392.283 44.4318 391.661 44.0982 391.295 43.431C390.931 42.7547 390.873 41.8179 391.121 40.6206C391.287 39.8163 391.541 39.1308 391.882 38.5641C392.235 37.9883 392.653 37.545 393.137 37.2343C393.631 36.9235 394.172 36.7682 394.76 36.7682ZM394.874 37.9746C394.519 37.9746 394.199 38.0797 393.913 38.2899C393.629 38.491 393.38 38.788 393.168 39.181C392.966 39.5741 392.805 40.0585 392.686 40.6343C392.508 41.4934 392.513 42.1469 392.7 42.5947C392.887 43.0426 393.252 43.2665 393.793 43.2665C394.11 43.2665 394.391 43.2208 394.633 43.1294C394.876 43.038 395.088 42.8963 395.267 42.7044C395.456 42.5125 395.614 42.2703 395.74 41.9778C395.877 41.6762 395.989 41.3152 396.076 40.8947L396.133 40.6206C396.263 39.9899 396.303 39.4827 396.251 39.0988C396.211 38.7058 396.074 38.4224 395.839 38.2488C395.616 38.066 395.294 37.9746 394.874 37.9746ZM404.195 36.7682C405.017 36.7682 405.602 36.9829 405.952 37.4125C406.311 37.8421 406.392 38.5321 406.196 39.4827L405.2 44.2947H403.688L404.641 39.6883C404.76 39.1125 404.732 38.6829 404.558 38.3996C404.394 38.1071 404.074 37.9609 403.598 37.9609C402.898 37.9609 402.371 38.1848 402.017 38.6327C401.663 39.0805 401.399 39.7249 401.225 40.5657L400.454 44.2947H398.942L400.471 36.9053H401.661L401.667 37.8923H401.751C401.962 37.6364 402.197 37.4262 402.455 37.2617C402.713 37.0972 402.991 36.9738 403.288 36.8915C403.585 36.8093 403.887 36.7682 404.195 36.7682ZM410.337 36.9053L408.808 44.2947H407.282L408.811 36.9053H410.337ZM410.176 34.0948C410.4 34.0948 410.583 34.1588 410.724 34.2867C410.866 34.4147 410.906 34.6295 410.843 34.9311C410.783 35.2235 410.654 35.4383 410.458 35.5754C410.263 35.7034 410.054 35.7674 409.83 35.7674C409.587 35.7674 409.395 35.7034 409.254 35.5754C409.114 35.4383 409.075 35.2235 409.135 34.9311C409.198 34.6295 409.326 34.4147 409.52 34.2867C409.715 34.1588 409.934 34.0948 410.176 34.0948ZM415.801 38.0157H414.079L412.78 44.2947H411.254L412.553 38.0157H411.391L411.533 37.3303L412.789 36.8778L412.885 36.4117C413.016 35.7811 413.208 35.2784 413.463 34.9037C413.729 34.5198 414.058 34.241 414.448 34.0674C414.839 33.8937 415.291 33.8069 415.804 33.8069C416.112 33.8069 416.391 33.8343 416.641 33.8891C416.891 33.944 417.108 34.0034 417.29 34.0674L416.682 35.1778C416.552 35.1321 416.397 35.091 416.218 35.0545C416.05 35.0088 415.873 34.9859 415.686 34.9859C415.35 34.9859 415.078 35.1047 414.87 35.3424C414.663 35.58 414.509 35.941 414.408 36.4254L414.309 36.9053H416.031L415.801 38.0157ZM418.761 36.9053L417.232 44.2947H415.706L417.235 36.9053H418.761ZM418.601 34.0948C418.825 34.0948 419.007 34.1588 419.149 34.2867C419.29 34.4147 419.33 34.6295 419.268 34.9311C419.207 35.2235 419.079 35.4383 418.882 35.5754C418.688 35.7034 418.479 35.7674 418.255 35.7674C418.012 35.7674 417.82 35.7034 417.678 35.5754C417.539 35.4383 417.499 35.2235 417.56 34.9311C417.622 34.6295 417.75 34.4147 417.945 34.2867C418.139 34.1588 418.358 34.0948 418.601 34.0948ZM422.252 44.4318C421.589 44.4318 421.033 44.2993 420.584 44.0342C420.144 43.7692 419.842 43.3579 419.677 42.8004C419.524 42.2337 419.537 41.5162 419.717 40.648C419.906 39.734 420.208 38.9937 420.624 38.427C421.04 37.8604 421.532 37.4445 422.1 37.1794C422.67 36.9053 423.287 36.7682 423.949 36.7682C424.341 36.7682 424.705 36.8139 425.041 36.9053C425.388 36.9875 425.667 37.0835 425.877 37.1932L425.174 38.3585C424.96 38.2671 424.725 38.1848 424.469 38.1117C424.214 38.0386 423.965 38.002 423.722 38.002C423.293 38.002 422.917 38.1026 422.596 38.3036C422.285 38.4956 422.019 38.788 421.798 39.181C421.579 39.5649 421.408 40.0493 421.287 40.6343C421.172 41.1918 421.145 41.6625 421.205 42.0464C421.266 42.4302 421.411 42.7227 421.64 42.9238C421.88 43.1157 422.196 43.2117 422.588 43.2117C422.971 43.2117 423.321 43.166 423.638 43.0746C423.965 42.9832 424.275 42.8644 424.566 42.7181L424.305 43.9794C424.012 44.1348 423.703 44.249 423.38 44.3221C423.057 44.3953 422.681 44.4318 422.252 44.4318ZM430.289 36.7682C431.175 36.7682 431.8 36.9738 432.163 37.3851C432.537 37.7872 432.634 38.4224 432.455 39.2907L431.419 44.2947H430.341L430.26 43.2665H430.204C429.935 43.5316 429.675 43.7509 429.424 43.9246C429.183 44.0982 428.914 44.2262 428.617 44.3084C428.329 44.3907 427.984 44.4318 427.583 44.4318C427.163 44.4318 426.801 44.3541 426.497 44.1988C426.195 44.0342 425.98 43.7875 425.852 43.4584C425.726 43.1203 425.715 42.6998 425.819 42.1972C425.975 41.4477 426.363 40.8765 426.986 40.4835C427.618 40.0904 428.498 39.8757 429.625 39.8391L430.838 39.798L430.923 39.3867C431.036 38.8383 430.999 38.4544 430.811 38.2351C430.633 38.0157 430.338 37.9061 429.927 37.9061C429.582 37.9061 429.23 37.9609 428.871 38.0706C428.513 38.1802 428.159 38.3128 427.809 38.4681L427.565 37.4125C427.949 37.2297 428.372 37.0789 428.835 36.9601C429.31 36.8321 429.794 36.7682 430.289 36.7682ZM429.726 40.7714C428.954 40.8079 428.392 40.9496 428.043 41.1964C427.695 41.434 427.475 41.7722 427.385 42.2109C427.305 42.5947 427.35 42.8735 427.52 43.0472C427.698 43.2208 427.956 43.3076 428.292 43.3076C428.805 43.3076 429.267 43.1477 429.679 42.8278C430.1 42.5079 430.376 42.0281 430.509 41.3883L430.642 40.7439L429.726 40.7714ZM438.758 36.7682C439.579 36.7682 440.165 36.9829 440.514 37.4125C440.873 37.8421 440.955 38.5321 440.758 39.4827L439.762 44.2947H438.25L439.203 39.6883C439.323 39.1125 439.295 38.6829 439.12 38.3996C438.957 38.1071 438.637 37.9609 438.161 37.9609C437.461 37.9609 436.934 38.1848 436.58 38.6327C436.226 39.0805 435.962 39.7249 435.788 40.5657L435.016 44.2947H433.504L435.033 36.9053H436.223L436.229 37.8923H436.313C436.525 37.6364 436.76 37.4262 437.018 37.2617C437.276 37.0972 437.553 36.9738 437.85 36.8915C438.147 36.8093 438.45 36.7682 438.758 36.7682ZM444.734 43.2528C444.93 43.2528 445.125 43.2345 445.319 43.198C445.513 43.1614 445.685 43.1203 445.835 43.0746L445.608 44.1713C445.434 44.2445 445.212 44.3039 444.941 44.3496C444.677 44.4044 444.406 44.4318 444.126 44.4318C443.734 44.4318 443.389 44.3633 443.09 44.2262C442.792 44.0891 442.58 43.8514 442.454 43.5133C442.328 43.1751 442.327 42.7044 442.452 42.1012L443.297 38.0157H442.331L442.468 37.3577L443.617 36.8093L444.458 35.2464H445.396L445.053 36.9053H447.055L446.825 38.0157H444.823L443.984 42.0738C443.901 42.4759 443.932 42.773 444.079 42.9649C444.226 43.1568 444.444 43.2528 444.734 43.2528ZM454.816 36.7682C455.703 36.7682 456.328 36.9738 456.69 37.3851C457.065 37.7872 457.162 38.4224 456.982 39.2907L455.947 44.2947H454.869L454.788 43.2665H454.732C454.462 43.5316 454.202 43.7509 453.951 43.9246C453.71 44.0982 453.441 44.2262 453.144 44.3084C452.856 44.3907 452.512 44.4318 452.11 44.4318C451.69 44.4318 451.328 44.3541 451.025 44.1988C450.723 44.0342 450.508 43.7875 450.38 43.4584C450.254 43.1203 450.243 42.6998 450.347 42.1972C450.502 41.4477 450.891 40.8765 451.513 40.4835C452.145 40.0904 453.025 39.8757 454.153 39.8391L455.365 39.798L455.45 39.3867C455.564 38.8383 455.527 38.4544 455.339 38.2351C455.16 38.0157 454.865 37.9061 454.455 37.9061C454.109 37.9061 453.757 37.9609 453.399 38.0706C453.04 38.1802 452.686 38.3128 452.336 38.4681L452.093 37.4125C452.476 37.2297 452.899 37.0789 453.362 36.9601C453.837 36.8321 454.321 36.7682 454.816 36.7682ZM454.254 40.7714C453.481 40.8079 452.92 40.9496 452.57 41.1964C452.222 41.434 452.003 41.7722 451.912 42.2109C451.833 42.5947 451.878 42.8735 452.047 43.0472C452.226 43.2208 452.483 43.3076 452.819 43.3076C453.332 43.3076 453.795 43.1477 454.206 42.8278C454.627 42.5079 454.904 42.0281 455.036 41.3883L455.169 40.7439L454.254 40.7714ZM460.921 43.2528C461.117 43.2528 461.312 43.2345 461.507 43.198C461.701 43.1614 461.873 43.1203 462.022 43.0746L461.795 44.1713C461.621 44.2445 461.399 44.3039 461.128 44.3496C460.865 44.4044 460.593 44.4318 460.313 44.4318C459.921 44.4318 459.576 44.3633 459.278 44.2262C458.98 44.0891 458.767 43.8514 458.641 43.5133C458.515 43.1751 458.515 42.7044 458.64 42.1012L459.485 38.0157H458.519L458.655 37.3577L459.805 36.8093L460.646 35.2464H461.584L461.241 36.9053H463.243L463.013 38.0157H461.011L460.171 42.0738C460.088 42.4759 460.12 42.773 460.267 42.9649C460.414 43.1568 460.632 43.2528 460.921 43.2528ZM397.82 53.1119C399.043 53.1119 399.88 53.3724 400.332 53.8934C400.796 54.4052 400.932 55.1227 400.741 56.0458C400.656 56.4571 400.509 56.8501 400.301 57.2248C400.102 57.5996 399.827 57.9377 399.475 58.2393C399.135 58.5318 398.708 58.7649 398.196 58.9385C397.686 59.103 397.086 59.1853 396.395 59.1853H395.415L394.647 62.9006H393.093L395.118 53.1119H397.82ZM397.478 54.3595H396.414L395.674 57.9377H396.486C396.99 57.9377 397.422 57.8783 397.782 57.7595C398.145 57.6315 398.438 57.435 398.66 57.17C398.894 56.8958 399.057 56.5393 399.148 56.1006C399.269 55.5157 399.195 55.0816 398.927 54.7982C398.661 54.5058 398.178 54.3595 397.478 54.3595ZM407.158 61.3788L401.464 58.5135L401.623 57.7458L408.582 54.4966L408.329 55.7168L403.137 58.0748L407.41 60.1587L407.158 61.3788ZM415.434 57.9926C415.27 58.7877 415.067 59.496 414.826 60.1176C414.586 60.7391 414.289 61.2692 413.937 61.7079C413.596 62.1374 413.197 62.4665 412.739 62.695C412.291 62.9234 411.772 63.0377 411.184 63.0377C410.466 63.0377 409.91 62.8366 409.517 62.4345C409.134 62.0323 408.903 61.4565 408.824 60.7071C408.757 59.9485 408.833 59.0436 409.05 57.9926C409.27 56.9324 409.559 56.0275 409.92 55.2781C410.29 54.5286 410.748 53.9574 411.296 53.5644C411.846 53.1622 412.509 52.9611 413.283 52.9611C414.011 52.9611 414.567 53.1622 414.95 53.5644C415.345 53.9574 415.577 54.5286 415.646 55.2781C415.724 56.0275 415.654 56.9324 415.434 57.9926ZM410.576 57.9926C410.4 58.8426 410.305 59.5509 410.29 60.1176C410.285 60.6842 410.375 61.1092 410.559 61.3925C410.752 61.6759 411.049 61.8175 411.451 61.8175C411.861 61.8175 412.212 61.6804 412.502 61.4063C412.803 61.1229 413.068 60.6979 413.298 60.1313C413.529 59.5555 413.732 58.8426 413.908 57.9926C414.084 57.1426 414.174 56.4388 414.177 55.8813C414.182 55.3146 414.093 54.8896 413.909 54.6063C413.734 54.323 413.441 54.1813 413.031 54.1813C412.629 54.1813 412.273 54.323 411.963 54.6063C411.662 54.8896 411.396 55.3146 411.167 55.8813C410.949 56.4388 410.752 57.1426 410.576 57.9926ZM416.029 62.0917C416.103 61.7353 416.243 61.4839 416.451 61.3377C416.668 61.1915 416.912 61.1184 417.182 61.1184C417.444 61.1184 417.652 61.1915 417.809 61.3377C417.975 61.4839 418.021 61.7353 417.947 62.0917C417.873 62.4482 417.722 62.7041 417.494 62.8595C417.275 63.0148 417.035 63.0925 416.774 63.0925C416.503 63.0925 416.29 63.0148 416.136 62.8595C415.991 62.7041 415.955 62.4482 416.029 62.0917ZM426.604 57.9926C426.44 58.7877 426.237 59.496 425.996 60.1176C425.756 60.7391 425.459 61.2692 425.107 61.7079C424.766 62.1374 424.367 62.4665 423.909 62.695C423.46 62.9234 422.942 63.0377 422.354 63.0377C421.635 63.0377 421.08 62.8366 420.687 62.4345C420.303 62.0323 420.073 61.4565 419.994 60.7071C419.927 59.9485 420.003 59.0436 420.22 57.9926C420.439 56.9324 420.729 56.0275 421.09 55.2781C421.459 54.5286 421.918 53.9574 422.466 53.5644C423.016 53.1622 423.678 52.9611 424.453 52.9611C425.181 52.9611 425.737 53.1622 426.12 53.5644C426.515 53.9574 426.747 54.5286 426.816 55.2781C426.894 56.0275 426.823 56.9324 426.604 57.9926ZM421.746 57.9926C421.57 58.8426 421.475 59.5509 421.46 60.1176C421.455 60.6842 421.545 61.1092 421.729 61.3925C421.922 61.6759 422.219 61.8175 422.621 61.8175C423.031 61.8175 423.382 61.6804 423.672 61.4063C423.973 61.1229 424.238 60.6979 424.468 60.1313C424.699 59.5555 424.902 58.8426 425.078 57.9926C425.254 57.1426 425.344 56.4388 425.347 55.8813C425.352 55.3146 425.263 54.8896 425.079 54.6063C424.904 54.323 424.611 54.1813 424.201 54.1813C423.799 54.1813 423.443 54.323 423.133 54.6063C422.831 54.8896 422.566 55.3146 422.337 55.8813C422.119 56.4388 421.922 57.1426 421.746 57.9926ZM434.151 57.9926C433.986 58.7877 433.784 59.496 433.543 60.1176C433.303 60.7391 433.006 61.2692 432.654 61.7079C432.313 62.1374 431.914 62.4665 431.456 62.695C431.007 62.9234 430.489 63.0377 429.901 63.0377C429.182 63.0377 428.627 62.8366 428.234 62.4345C427.85 62.0323 427.62 61.4565 427.541 60.7071C427.474 59.9485 427.549 59.0436 427.767 57.9926C427.986 56.9324 428.276 56.0275 428.637 55.2781C429.006 54.5286 429.465 53.9574 430.013 53.5644C430.563 53.1622 431.225 52.9611 432 52.9611C432.728 52.9611 433.284 53.1622 433.667 53.5644C434.062 53.9574 434.294 54.5286 434.363 55.2781C434.441 56.0275 434.37 56.9324 434.151 57.9926ZM429.293 57.9926C429.117 58.8426 429.022 59.5509 429.007 60.1176C429.002 60.6842 429.091 61.1092 429.275 61.3925C429.469 61.6759 429.766 61.8175 430.167 61.8175C430.578 61.8175 430.929 61.6804 431.219 61.4063C431.52 61.1229 431.785 60.6979 432.014 60.1313C432.246 59.5555 432.449 58.8426 432.625 57.9926C432.801 57.1426 432.89 56.4388 432.894 55.8813C432.899 55.3146 432.81 54.8896 432.626 54.6063C432.451 54.323 432.158 54.1813 431.748 54.1813C431.346 54.1813 430.99 54.323 430.68 54.6063C430.378 54.8896 430.113 55.3146 429.884 55.8813C429.666 56.4388 429.469 57.1426 429.293 57.9926ZM438.75 62.9006H437.238L438.583 56.4023C438.63 56.1738 438.674 55.9635 438.713 55.7716C438.764 55.5705 438.809 55.3786 438.847 55.1958C438.896 55.0039 438.943 54.8211 438.988 54.6474C438.851 54.7662 438.71 54.8851 438.564 55.0039C438.42 55.1135 438.259 55.2369 438.082 55.374L436.895 56.2377L436.29 55.3055L439.474 53.1119H440.776L438.75 62.9006Z" fill="#444444" fill-opacity="0.5"/>
</g>
<defs>
<clipPath id="clip0_133_2">
<rect width="77" height="482" fill="white" transform="matrix(0 -1 1 0 0 77)"/>
</clipPath>
</defs>
</svg>
